<svg xmlns="http://www.w3.org/2000/svg" xmlns:xlink="http://www.w3.org/1999/xlink" id="Layer_1" x="0" y="0" version="1.1" viewBox="0 0 16 16" xml:space="preserve" style="enable-background:new 0 0 16 16"><style type="text/css">.st0{fill:none}</style><g><path d="M8,1C4.13,1,1,4.13,1,8c0,3.87,3.13,7,7,7s7-3.13,7-7C15,4.13,11.87,1,8,1z M11.18,9.77c0.39,0.39,0.39,1.02,0,1.41 c-0.2,0.2-0.45,0.29-0.71,0.29s-0.51-0.1-0.71-0.29L8,9.41l-1.77,1.77c-0.2,0.2-0.45,0.29-0.71,0.29s-0.51-0.1-0.71-0.29 c-0.39-0.39-0.39-1.02,0-1.41L6.59,8L4.82,6.23c-0.39-0.39-0.39-1.02,0-1.41s1.02-0.39,1.41,0L8,6.59l1.77-1.77 c0.39-0.39,1.02-0.39,1.41,0s0.39,1.02,0,1.41L9.41,8L11.18,9.77z"/><rect width="16" height="16" class="st0"/></g></svg>