<svg xmlns="http://www.w3.org/2000/svg" xmlns:xlink="http://www.w3.org/1999/xlink" id="Layer_1" x="0" y="0" version="1.1" viewBox="0 0 16 16" xml:space="preserve" style="enable-background:new 0 0 16 16"><style type="text/css">.st0{fill:#5e5e5e}.st1{fill:none}</style><g><path d="M8,1C4.1,1,1,4.1,1,8c0,3.9,3.1,7,7,7s7-3.1,7-7C15,4.1,11.9,1,8,1z M11.2,9.8c0.4,0.4,0.4,1,0,1.4 c-0.2,0.2-0.5,0.3-0.7,0.3s-0.5-0.1-0.7-0.3L8,9.4l-1.8,1.8c-0.2,0.2-0.5,0.3-0.7,0.3S5,11.4,4.8,11.2c-0.4-0.4-0.4-1,0-1.4L6.6,8 L4.8,6.2c-0.4-0.4-0.4-1,0-1.4s1-0.4,1.4,0L8,6.6l1.8-1.8c0.4-0.4,1-0.4,1.4,0s0.4,1,0,1.4L9.4,8L11.2,9.8z" class="st0"/><rect width="16" height="16" class="st1"/></g></svg>