<svg xmlns="http://www.w3.org/2000/svg" xmlns:xlink="http://www.w3.org/1999/xlink" id="Layer_1" width="16" height="16" x="0" style="enable-background:new 0 0 16 16" y="0" version="1.1" viewBox="0 0 16 16" xml:space="preserve"><style type="text/css">.st0{fill:#face20}.st1{fill:#fff}.st2{fill:#353637}.st3{fill:none}</style><g><polygon points="13 8 15 16 16 16 16 5 7 5 6 4 2 4 2 8" class="st0"/><g><g><polygon points="2.5 13.5 2.5 3.5 6.8 3.5 9.5 6.2 9.5 13.5" class="st1"/><path d="M6.6,4L9,6.4V13H3V4H6.6 M7,3H2v11h8V6L7,3L7,3z" class="st2"/></g><g><polygon points="9 7 6 7 6 4 7 4 7 6 9 6" class="st2"/></g></g><polygon points="12 9 13.3 14 16 14 16 16 10 16 2 16 0 9" class="st0"/><g><rect width="16" height="16" class="st3"/></g></g></svg>