<svg xmlns="http://www.w3.org/2000/svg" xmlns:xlink="http://www.w3.org/1999/xlink" id="Layer_1" width="16" height="16" x="0" style="enable-background:new 0 0 16 16" y="0" version="1.1" viewBox="0 0 16 16" xml:space="preserve"><style type="text/css">.st0{fill:#face20}.st1{fill:#fff}.st2{fill:#353637}.st3{fill:none}</style><g><polygon points="13 8 15 16 16 16 16 5 7 5 6 4 2 4 2 8" class="st0"/><g><g><polygon points="6.5 13.5 6.5 2.5 11.8 2.5 15.5 6.2 15.5 13.5" class="st1"/><path d="M11.6,3L15,6.4V13H7V3H11.6 M12,2H6v12h10V6L12,2L12,2z" class="st2"/></g><g><polygon points="15 7 11 7 11 3 12 3 12 6 15 6" class="st2"/></g></g><polygon points="12 9 13.3 14 16 14 16 16 9 16 2 16 0 9" class="st0"/><g><rect width="16" height="16" class="st3"/></g></g></svg>